<svg id="Layer_1" data-name="Layer 1" xmlns="http://www.w3.org/2000/svg" viewBox="0 0 157.69 42.93"><title>logo</title><path d="M19.76,19.26h12.7a24.52,24.52,0,0,0-2.15,2.15L19.76,37.5a6,6,0,0,1-4.29,2.68h-12l12-18.42c1.07-1.25,2.86-2.5,4.29-2.5" transform="translate(-3.48 -3.87)" style="fill:#005cab;fill-rule:evenodd"/><path d="M40.68,16.22H51.42l-5.9-8.94c-1.07-1.79-2.33-3.4-5.37-3.4H28.7l5.72,8.94a6.73,6.73,0,0,0,6.26,3.4" transform="translate(-3.48 -3.87)" style="fill:#e1232b;fill-rule:evenodd"/><path d="M40.68,19.26H51.42l-5.9,8.94c-1.07,1.79-2.33,3.4-5.37,3.4H28.7l5.72-8.94c1.07-2,2.86-3.4,6.26-3.4" transform="translate(-3.48 -3.87)" style="fill:#a2cd3a;fill-rule:evenodd"/><path d="M156.88,19.44h-3l-4.29,12.34h3l.9-2.15h3.75l.9,2.15h3Zm-2.69,7.69,1.25-3.76,1.07,3.76Zm-9.12-7.69v7.51l-5.37-7.51h-3V31.78h3V24.26l5.37,7.51h3V19.44Zm-14,0V31.78h3V19.44Zm-21.11,0H106.8l-4.29,12.34h3.22l.71-2.15h3.94l.71,2.15h3.22Zm-2.86,7.69,1.25-3.76,1.25,3.76ZM93.56,19.44v3H97V32h3V22.48h3.58v-3Zm-26.47,0h-5.9V31.78h3V27.66h2.86a3.67,3.67,0,0,0,3.75-3.76v-.71A3.66,3.66,0,0,0,67.09,19.44Zm.71,4.29A1.28,1.28,0,0,1,66.37,25H64.23V22.12h2.15a1.28,1.28,0,0,1,1.43,1.25Zm59.38-4.29h-2.86L122,25.88l-2.15-6.44H117l-2,12.34h2.86L119,24.44l2.51,7.34h1.25l2.5-7.34,1.07,7.34h2.86Z" transform="translate(-3.48 -3.87)" style="fill:#231f20;fill-rule:evenodd"/><path d="M89.63,26.77a3.42,3.42,0,0,0,2.86-3.22v-.71a3.4,3.4,0,0,0-3.4-3.4H83V31.78h3v-5h.36l3.75,5h3.75Zm-.36-3.22A1.22,1.22,0,0,1,88,24.8H86v-3h2a1.38,1.38,0,0,1,1.25,1.43Z" transform="translate(-3.48 -3.87)" style="fill:#231f20;fill-rule:evenodd"/><polygon points="72.02 18.6 72.02 20.21 77.03 20.21 77.03 23.25 72.02 23.25 72.02 25.04 77.2 25.04 77.2 27.91 68.97 27.91 68.97 15.56 77.2 15.56 77.2 18.6 72.02 18.6" style="fill:#231f20;fill-rule:evenodd"/><path d="M66.73,42.45a2.87,2.87,0,0,0,2.4-2.7v-.6a2.85,2.85,0,0,0-2.85-2.85h-5.1V46.65h2.55v-4.2H64l3.15,4.2h3.15Zm-.3-2.7a1,1,0,0,1-1,1H63.74V38.25h1.65a1.15,1.15,0,0,1,1,1.2Z" transform="translate(-3.48 -3.87)" style="fill:#ed1c25;fill-rule:evenodd"/><polygon points="70.19 34.98 70.19 36.33 74.39 36.33 74.39 38.88 70.19 38.88 70.19 40.38 74.54 40.38 74.54 42.78 67.64 42.78 67.64 32.43 74.54 32.43 74.54 34.98 70.19 34.98" style="fill:#ed1c25;fill-rule:evenodd"/><polygon points="84.35 32.43 84.35 34.98 81.35 34.98 81.35 42.93 78.8 42.93 78.8 34.98 75.95 34.98 75.95 32.43 84.35 32.43" style="fill:#ed1c25;fill-rule:evenodd"/><path d="M94.13,36.45h-2.7L87.83,46.8h2.7l.6-1.8h3.3l.6,1.8h2.7Zm-2.4,6.45,1-3.15,1,3.15Z" transform="translate(-3.48 -3.87)" style="fill:#ed1c25"/><rect x="95.89" y="32.43" width="2.55" height="10.5" style="fill:#ed1c25"/><rect x="100.84" y="32.43" width="2.55" height="10.5" style="fill:#ed1c25"/><rect x="106.47" y="42.1" width="2.55" height="6.85" transform="translate(149.8 -66.1) rotate(90)" style="fill:#ed1c25"/></svg>